<?xml version="1.0" standalone="no"?>
<!DOCTYPE svg PUBLIC "-//W3C//DTD SVG 20010904//EN"
 "http://www.w3.org/TR/2001/REC-SVG-20010904/DTD/svg10.dtd">
<svg version="1.0" xmlns="http://www.w3.org/2000/svg"
 width="16.000000pt" height="16.000000pt" viewBox="0 0 16.000000 16.000000"
 preserveAspectRatio="xMidYMid meet">
<metadata>
Created by potrace 1.11, written by Peter Selinger 2001-2013
</metadata>
<g transform="translate(0.000000,16.000000) scale(0.001563,-0.001563)"
fill="#000000" stroke="none">
<path d="M42 7332 c-40 -3 -43 -5 -29 -20 8 -9 110 -168 227 -352 118 -184
238 -373 268 -420 53 -81 105 -163 168 -260 16 -25 33 -53 39 -62 5 -10 111
-175 235 -368 124 -192 260 -405 303 -473 42 -67 96 -151 119 -186 l41 -64
-22 -40 c-13 -21 -134 -213 -270 -426 -136 -212 -284 -444 -330 -516 -109
-172 -530 -833 -583 -915 -23 -36 -77 -120 -120 -187 -43 -67 -78 -125 -78
-130 0 -6 1029 -9 1255 -4 24 1 35 9 50 34 10 17 47 75 80 127 34 52 167 259
295 460 129 201 258 403 288 450 30 47 67 105 83 130 16 25 32 50 37 56 5 5
15 21 22 34 7 14 41 67 75 120 34 52 87 136 119 185 32 50 94 147 139 217 45
70 114 178 152 239 39 61 78 121 87 132 15 21 16 -4 17 -398 0 -231 0 -429 1
-441 l0 -20 1328 0 1327 0 0 -222 1 -222 -443 0 -443 0 0 -440 c0 -412 1 -440
18 -441 23 0 1643 0 1707 0 l50 1 -2 1733 c-1 952 -2 1749 -2 1770 l-1 37
-1770 0 -1770 0 -1 -122 c0 -68 0 -366 0 -663 0 -481 -2 -538 -15 -520 -8 11
-37 54 -63 95 -26 41 -79 123 -117 182 -38 59 -78 123 -89 141 -11 19 -58 93
-105 166 -47 73 -112 174 -145 226 -171 269 -231 364 -402 630 -204 320 -260
408 -382 600 -46 72 -86 134 -91 139 -8 8 -1156 15 -1258 8z m5324 -1993 l0
-219 -886 0 -886 0 1 218 c1 119 3 218 4 219 0 1 398 1 884 1 l883 0 0 -219z"/>
<path d="M6730 7332 l-35 -3 1 -1537 c1 -845 2 -1542 3 -1548 1 -7 534 -10
1771 -10 l1770 0 0 1111 0 1110 -1329 -1 -1330 0 0 434 c0 239 -2 436 -5 439
-6 6 -785 10 -846 5z m2621 -1782 c3 -47 4 -407 1 -417 -3 -10 -190 -13 -888
-13 l-883 0 0 217 c1 120 4 220 9 223 4 3 402 5 884 5 772 0 876 -2 877 -15z"/>
</g>
</svg>
